#!OML:ASF H:\GeneralSubjects\Female5\Project 1\Capture day 1\Session 1\Female5.ASF
:FULLY-SPECIFIED
:DEGREES
224
root -12.2209 16.3276 1.56875 -164.803 67.6683 -176.415
lowerback 6.84895 1.89559 1.03246
upperback -9.86046 3.50224 2.53934
thorax -14.8611 1.90526 1.5164
lowerneck -16.4862 -3.19905 -1.59652
upperneck 34.4304 -1.0294 -4.81113
head 14.6513 -0.793645 -1.74258
rclavicle 3.98563e-014 -7.95139e-016
rhumerus -56.9557 38.6799 -100.505
rradius 41.1353
rwrist 2.11733
rhand -26.324 -17.4639
rfingers 7.12502
rthumb 0.232793 -47.4435
lclavicle 3.98563e-014 -7.95139e-016
lhumerus -56.9855 5.45046 72.7286
lradius 32.2312
lwrist -8.10314
lhand -26.0139 31.8405
lfingers 7.12502
lthumb 0.532367 61.8196
rfemur 7.41904 21.5596 36.2775
rtibia -11.2878
rfoot -49.807 -29.3408
rtoes 29.4306
lfemur -14.761 -30.1915 -21.124
ltibia 8.51594
lfoot -0.641894 -4.21071
ltoes -25.5766
225
root -12.2211 16.3317 1.58984 -165.154 66.8757 -176.87
lowerback 6.89314 1.81929 0.862019
upperback -9.79616 3.38167 2.62463
thorax -14.8245 1.87289 1.72935
lowerneck -16.6491 -3.44411 -2.31605
upperneck 34.1554 -1.25791 -4.63063
head 14.5743 -0.973947 -1.58044
rclavicle 7.95139e-014 1.19271e-014
rhumerus -56.8776 39.5656 -100.822
rradius 41.1774
rwrist 2.09293
rhand -25.7604 -17.1743
rfingers 7.12502
rthumb 0.77712 -47.1526
lclavicle 7.95139e-014 1.19271e-014
lhumerus -57.2316 5.88807 72.2929
lradius 32.0689
lwrist -8.08682
lhand -26.0697 31.0361
lfingers 7.12502
lthumb 0.478473 61.0153
rfemur 7.40301 21.0023 36.2895
rtibia -11.469
rfoot -50.0365 -29.3833
rtoes 29.7791
lfemur -15.0762 -30.2138 -21.1324
ltibia 8.58084
lfoot -0.0174449 -4.34283
ltoes -25.8251
226
root -12.222 16.3353 1.60911 -165.184 66.0167 -176.976
lowerback 6.92354 1.74725 0.834375
upperback -9.74573 3.29555 2.74486
thorax -14.7909 1.84526 1.89478
lowerneck -16.7154 -3.71003 -2.88873
upperneck 33.9509 -1.54886 -4.46393
head 14.506 -1.15748 -1.46015
rclavicle -2.05742e-014 2.22639e-014
rhumerus -57.0306 40.5699 -101.301
rradius 41.3288
rwrist 1.98767
rhand -25.4538 -16.8986
rfingers 7.12502
rthumb 1.07326 -46.8756
lclavicle -2.05742e-014 2.22639e-014
lhumerus -57.5496 6.06191 72.0895
lradius 32.06
lwrist -7.81537
lhand -25.1841 31.5857
lfingers 7.12502
lthumb 1.33374 61.5612
rfemur 7.36628 20.4085 36.4228
rtibia -11.6284
rfoot -50.3129 -29.2249
rtoes 30.1878
lfemur -15.4003 -30.338 -20.9574
ltibia 8.61413
lfoot 0.567107 -4.41977
ltoes -25.95
227
root -12.2292 16.3386 1.63093 -165.18 65.1378 -177.056
lowerback 7.02854 1.67687 0.799034
upperback -9.73928 3.21851 2.86701
thorax -14.8595 1.82416 2.06238
lowerneck -16.5866 -3.90813 -3.02686
upperneck 33.5751 -1.76948 -4.66966
head 14.3049 -1.30355 -1.54623
rclavicle -1.20265e-014 2.94201e-014
rhumerus -57.0875 41.3693 -101.651
rradius 41.3808
rwrist 2.19066
rhand -25.5702 -16.9269
rfingers 7.12502
rthumb 0.960879 -46.9045
lclavicle -1.20265e-014 2.94201e-014
lhumerus -57.8741 6.43049 71.7039
lradius 31.8889
lwrist -7.96541
lhand -24.7331 32.5127
lfingers 7.12502
lthumb 1.76931 62.4852
rfemur 7.21503 19.8154 36.5329
rtibia -11.7281
rfoot -50.4739 -29.2878
rtoes 30.0844
lfemur -15.7935 -30.4315 -20.6941
ltibia 8.50885
lfoot 1.33271 -4.23853
ltoes -25.8605
228
root -12.2381 16.3392 1.6539 -165.005 64.199 -177.015
lowerback 7.09212 1.60249 0.795534
upperback -9.76487 3.1491 3.01265
thorax -14.9408 1.80769 2.23813
lowerneck -16.5792 -4.19263 -3.28246
upperneck 33.3884 -2.07773 -4.80826
head 14.2209 -1.49135 -1.60598
rclavicle -5.92378e-014 -6.2816e-014
rhumerus -56.8973 41.8831 -101.776
rradius 41.2185
rwrist 2.41668
rhand -25.7074 -16.7135
rfingers 7.12502
rthumb 0.828362 -46.6916
lclavicle -5.92378e-014 -6.2816e-014
lhumerus -58.1201 6.92811 71.3591
lradius 31.7554
lwrist -7.87152
lhand -25.123 32.1173
lfingers 7.12502
lthumb 1.39275 62.0925
rfemur 6.95819 19.1962 36.673
rtibia -11.8057
rfoot -50.5095 -29.6986
rtoes 29.6142
lfemur -16.364 -30.5006 -20.3142
ltibia 8.50674
lfoot 2.18587 -4.08352
ltoes -25.5883
229
root -12.2471 16.3389 1.67129 -165.015 63.2247 -177.227
lowerback 7.02657 1.53011 0.70966
upperback -9.78035 3.06319 3.13449
thorax -14.928 1.79125 2.44044
lowerneck -16.5543 -4.46542 -3.67865
upperneck 33.2011 -2.37738 -4.79
head 14.1403 -1.67092 -1.57584
rclavicle 1.11518e-013 7.15625e-015
rhumerus -56.8043 42.555 -101.964
rradius 41.1654
rwrist 2.35607
rhand -25.7626 -16.4549
rfingers 7.12502
rthumb 0.775033 -46.4332
lclavicle 1.11518e-013 7.15625e-015
lhumerus -58.29 7.3483 71.1597
lradius 31.7364
lwrist -7.59653
lhand -25.031 31.7065
lfingers 7.12502
lthumb 1.48168 61.6811
rfemur 6.74481 18.4906 36.6411
rtibia -11.9841
rfoot -50.6605 -29.8572
rtoes 29.5332
lfemur -17.068 -30.5741 -20.158
ltibia 8.82034
lfoot 3.0991 -4.14188
ltoes -25.087
